<?xml version="1.0" encoding="UTF-8"?>
<svg version="1.1" xmlns="http://www.w3.org/2000/svg" width="415" height="474">
<path d="M0 0 C1.43279297 1.07314453 1.43279297 1.07314453 2.89453125 2.16796875 C3.58933594 2.77253906 4.28414063 3.37710938 5 4 C5 4.66 5 5.32 5 6 C5.58394531 6.27972656 6.16789062 6.55945313 6.76953125 6.84765625 C17.127402 12.19892047 23.72106767 21.45457109 30 31 C30.74636719 32.07894531 31.49273437 33.15789062 32.26171875 34.26953125 C58.2009526 71.93099594 67.95070583 115.59710435 60.22265625 160.73828125 C52.28197538 203.45274913 27.41319029 241.71692517 -8.2734375 266.53125 C-9.5114295 267.36046495 -10.75360775 268.18346587 -12 269 C-12.62422852 269.40992188 -13.24845703 269.81984375 -13.89160156 270.2421875 C-50.88595926 294.1561933 -95.1681485 302.12522644 -138.29980469 293.47607422 C-170.59148725 286.45043597 -197.92768227 270.35286646 -222 248 C-222.59296875 247.46117187 -223.1859375 246.92234375 -223.796875 246.3671875 C-253.24844374 218.45831998 -269.81392552 175.52265027 -271.25 135.53515625 C-272.07198543 93.63673226 -257.91418431 51.07402349 -229.0625 20.21875 C-227.22554251 18.24262907 -225.52188835 16.21045379 -223.8125 14.125 C-167.01685696 -50.63508953 -65.1930889 -49.34222022 0 0 Z M-137 -13 C-138.21558594 -12.74476563 -139.43117188 -12.48953125 -140.68359375 -12.2265625 C-162.18531964 -7.1809476 -182.39040179 3.51020511 -199 18 C-199.95261719 18.81984375 -200.90523437 19.6396875 -201.88671875 20.484375 C-230.20791311 45.33273196 -248.40360598 81.28489404 -251 119 C-252.93044424 159.86233645 -240.86321893 197.19853121 -213.6875 227.9375 C-212.13205108 229.63150152 -210.56947018 231.31898071 -209 233 C-208.25105469 233.8146875 -207.50210938 234.629375 -206.73046875 235.46875 C-180.89346332 262.54833115 -143.46595803 276.06544557 -106.53295898 277.06689453 C-66.08676561 277.43562135 -28.91014895 262.00048842 0 234 C0.51868652 233.50709473 1.03737305 233.01418945 1.57177734 232.50634766 C8.20754167 226.19536837 14.22498291 219.8740348 19 212 C19.37334473 211.38979004 19.74668945 210.77958008 20.13134766 210.15087891 C41.48973338 174.82446447 48.16790792 134.57194511 38.96875 94.30859375 C35.33074995 79.62056399 29.22772322 65.69170071 21 53 C20.5153125 52.16984375 20.030625 51.3396875 19.53125 50.484375 C0.7402074 18.98174476 -32.11902261 -2.47553782 -67 -12 C-71.96163531 -13.24551339 -76.94180515 -14.22730278 -82 -15 C-83.17175781 -15.18304688 -84.34351563 -15.36609375 -85.55078125 -15.5546875 C-102.50014681 -17.58642147 -120.37679803 -16.85207889 -137 -13 Z " transform="translate(305,171)"/>
<path d="M0 0 C6.8729708 2.2045378 11.75166584 7.74364054 15.28515625 13.89453125 C19.70368035 23.21879313 20.52462527 32.88048683 20.3125 43.0625 C21.611875 43.145 22.91125 43.2275 24.25 43.3125 C30.97276852 44.0853537 36.13740253 46.28691023 41.375 50.5625 C44.6840186 55.08942128 44.05073299 60.76950876 43.3125 66.0625 C41.70304317 71.74293586 38.40970723 75.34440472 33.99609375 79.12890625 C33.44050781 79.43699219 32.88492188 79.74507813 32.3125 80.0625 C31.3225 79.7325 30.3325 79.4025 29.3125 79.0625 C28.9825 78.0725 28.6525 77.0825 28.3125 76.0625 C25.28812661 74.5503133 22.65008466 74.88986631 19.3125 75.0625 C16.95880193 75.94314927 16.95880193 75.94314927 15.3125 77.0625 C15.19624544 79.9688639 15.17928472 81.44980921 16.3125 84.0625 C24.76540193 91.58003983 35.61387975 93.29730671 46.5 93.4375 C47.24830078 93.45151855 47.99660156 93.46553711 48.76757812 93.47998047 C55.46425518 93.4223524 60.86528973 91.8979077 66.3125 87.8125 C68.86470085 84.30322384 68.95356313 82.30954327 68.3125 78.0625 C65.42737022 75.71727065 65.42737022 75.71727065 61.8125 76.1875 C57.95652157 77.15149461 57.31067523 77.80231937 55.3125 81.0625 C54.6525 81.0625 53.9925 81.0625 53.3125 81.0625 C51.30334126 74.47964658 50.70590262 65.21912202 53.8125 58.9375 C57.03210503 55.23495422 59.5116427 53.23604289 64.3125 52.0625 C69.34011931 51.75177581 74.28403132 51.82679053 79.3125 52.0625 C79.67408203 50.73605469 79.67408203 50.73605469 80.04296875 49.3828125 C81.42378527 45.77144622 83.0009112 43.75122884 85.625 40.9375 C86.38425781 40.10992187 87.14351562 39.28234375 87.92578125 38.4296875 C97.17538069 29.25578037 109.47993042 23.92821891 122.625 23.875 C123.9553125 23.9678125 123.9553125 23.9678125 125.3125 24.0625 C123.4240897 29.07762245 121.06974382 33.86212867 118.75 38.6875 C118.27602783 39.6760498 117.80205566 40.66459961 117.3137207 41.68310547 C113.26323433 50.11624237 109.17792074 58.5324126 105.08868408 66.94680786 C103.99780131 69.19202527 102.90775142 71.43764544 101.81787109 73.68334961 C98.62044441 80.2694772 95.41945149 86.85358789 92.18736267 93.42279053 C90.88487806 96.07237309 89.58817281 98.72475969 88.29238892 101.37762451 C87.40113961 103.1966495 86.50183569 105.01172114 85.60229492 106.82666016 C82.81709605 112.53725668 80.52547833 117.81451727 79.3125 124.0625 C80.76269531 125.00609375 80.76269531 125.00609375 82.2421875 125.96875 C89.90372836 130.98926505 97.35600128 136.08079728 104.3125 142.0625 C105.26640625 142.88234375 106.2203125 143.7021875 107.203125 144.546875 C119.36060243 155.2256078 128.63984001 167.4609096 137.3125 181.0625 C134.3125 181.0625 134.3125 181.0625 131.8515625 178.60546875 C130.87527402 177.49128355 129.90427559 176.37244948 128.9375 175.25 C99.12352944 141.93918902 55.62082179 122.31522925 11.3125 119.0625 C-11.31863924 118.03814317 -33.04295234 120.33210888 -54.6875 127.0625 C-55.3484668 127.26681641 -56.00943359 127.47113281 -56.69042969 127.68164062 C-75.02608847 133.53641256 -92.60421751 143.16084741 -107.6875 155.0625 C-108.656875 155.82304687 -109.62625 156.58359375 -110.625 157.3671875 C-120.49033621 165.28686018 -130.61107232 173.44785849 -137.6875 184.0625 C-138.3475 183.7325 -139.0075 183.4025 -139.6875 183.0625 C-127.12232115 162.87677286 -112.74462433 146.68647155 -93.4375 132.75 C-92.87119873 132.34120605 -92.30489746 131.93241211 -91.72143555 131.51123047 C-87.84059148 128.76029537 -83.84776128 126.36964997 -79.6875 124.0625 C-80.19612031 118.42293265 -81.7318858 114.30718633 -84.3359375 109.3125 C-84.70429214 108.58559967 -85.07264679 107.85869934 -85.4521637 107.10977173 C-86.6468161 104.75608661 -87.85476048 102.40949205 -89.0625 100.0625 C-90.30812801 97.61411959 -91.54993323 95.16382776 -92.79130554 92.71328735 C-93.61374681 91.08984788 -94.43723959 89.46694067 -95.26179504 87.84457397 C-98.48030077 81.50426756 -101.58920894 75.11741062 -104.625 68.6875 C-109.01805447 59.40851588 -113.56600509 50.21407987 -118.1796875 41.04296875 C-118.58799805 40.22618652 -118.99630859 39.4094043 -119.41699219 38.56787109 C-120.31045503 36.80601182 -121.22449729 35.05451207 -122.15332031 33.31103516 C-122.62092773 32.42077637 -123.08853516 31.53051758 -123.5703125 30.61328125 C-123.99973145 29.81188721 -124.42915039 29.01049316 -124.87158203 28.18481445 C-125.6875 26.0625 -125.6875 26.0625 -124.6875 23.0625 C-108.04620448 25.78787346 -93.77177871 29.54423981 -83.16015625 43.75390625 C-81.45219632 46.43137128 -80.0624188 49.20184805 -78.6875 52.0625 C-77.7696875 52.01609375 -76.851875 51.9696875 -75.90625 51.921875 C-61.82679061 51.50777325 -61.82679061 51.50777325 -56.6875 56.0625 C-52.68464428 60.88022278 -52.10385815 64.31679218 -52.3125 70.3125 C-52.31378906 71.03179687 -52.31507813 71.75109375 -52.31640625 72.4921875 C-52.40553571 77.78053571 -52.40553571 77.78053571 -54.6875 80.0625 C-55.0175 79.588125 -55.3475 79.11375 -55.6875 78.625 C-58.64578915 76.3138366 -61.96584311 75.90492985 -65.6875 76.0625 C-66.6775 76.7225 -67.6675 77.3825 -68.6875 78.0625 C-68.60127497 84.29316218 -68.60127497 84.29316218 -65.5625 89.5 C-55.13983748 95.1644905 -40.68186652 94.57626955 -29.5 91.4375 C-24.34259156 89.58004256 -19.38511574 87.21712443 -15.6875 83.0625 C-14.80016064 81.0731202 -14.80016064 81.0731202 -14.6875 79.0625 C-16.60424369 76.48226812 -18.12412188 75.27918389 -21.125 74.125 C-24.50629751 74.04252933 -26.01836744 75.0426159 -28.6875 77.0625 C-29.3475 78.0525 -30.0075 79.0425 -30.6875 80.0625 C-36.30534662 78.74065374 -38.79154781 74.71702135 -41.6875 70.0625 C-44.31848297 64.32217352 -44.56365568 58.85524624 -42.6875 52.875 C-39.15090758 47.90166691 -35.23138013 45.62424927 -29.2734375 44.30859375 C-26.08132113 43.81134686 -22.90104698 43.39071288 -19.6875 43.0625 C-19.72230469 42.17949219 -19.75710937 41.29648437 -19.79296875 40.38671875 C-20.11934849 25.91721687 -17.06378219 14.56337675 -7.37109375 3.7265625 C-4.96708849 1.35044593 -3.4405637 0.08001311 0 0 Z " transform="translate(200.6875,8.9375)"/>
<path d="M0 0 C1.75244019 -0.00430527 1.75244019 -0.00430527 3.5402832 -0.00869751 C6.00114428 -0.01073165 8.46202176 -0.00524748 10.92285156 0.00732422 C14.67550029 0.02338614 18.42707201 0.00745233 22.1796875 -0.01171875 C24.57812736 -0.0097362 26.97656656 -0.0058923 29.375 0 C30.48979736 -0.00607269 31.60459473 -0.01214539 32.75317383 -0.0184021 C42.72075554 0.07096807 49.30374568 2.21448944 56.640625 9.171875 C62.82837227 15.90282146 65.06936052 23.33239178 65.6875 32.3984375 C64.6875 33.3984375 64.6875 33.3984375 62.82983398 33.51196289 C61.64369507 33.50410767 61.64369507 33.50410767 60.43359375 33.49609375 C59.57958984 33.49287109 58.72558594 33.48964844 57.84570312 33.48632812 C56.49895508 33.47375977 56.49895508 33.47375977 55.125 33.4609375 C54.22330078 33.45642578 53.32160156 33.45191406 52.39257812 33.44726562 C50.15748686 33.43543975 47.92252563 33.4189597 45.6875 33.3984375 C45.42195313 32.83253906 45.15640625 32.26664062 44.8828125 31.68359375 C44.52960938 30.95011719 44.17640625 30.21664063 43.8125 29.4609375 C43.46445313 28.73003906 43.11640625 27.99914062 42.7578125 27.24609375 C41.8190023 25.23511291 41.8190023 25.23511291 39.6875 24.3984375 C37.81853057 24.24370199 35.94450189 24.1483936 34.0703125 24.08203125 C32.91474854 24.03981445 31.75918457 23.99759766 30.56860352 23.95410156 C28.70933228 23.89561035 28.70933228 23.89561035 26.8125 23.8359375 C25.55429443 23.7956543 24.29608887 23.75537109 22.99975586 23.71386719 C19.22919401 23.59974578 15.45849651 23.49704878 11.6875 23.3984375 C10.63159668 23.36830566 9.57569336 23.33817383 8.48779297 23.30712891 C5.74178866 23.23526315 2.9966567 23.1863603 0.25 23.1484375 C-0.95342041 23.11641235 -0.95342041 23.11641235 -2.18115234 23.08374023 C-6.74112284 23.05655637 -9.75804024 23.4485681 -13.3125 26.3984375 C-16.04602856 30.23822278 -15.61832243 34.62693881 -15.61328125 39.14453125 C-15.61756638 39.99265884 -15.6218515 40.84078644 -15.62626648 41.71461487 C-15.63200135 43.5057791 -15.63251625 45.29696662 -15.62817383 47.08813477 C-15.62501513 49.82283416 -15.64847845 52.55645001 -15.67382812 55.29101562 C-15.6761014 57.03385281 -15.67680449 58.77669289 -15.67578125 60.51953125 C-15.684991 61.334254 -15.69420074 62.14897675 -15.70368958 62.98838806 C-15.66617596 67.61087185 -15.3220325 70.65627206 -12.3125 74.3984375 C-9.13521714 76.51662607 -8.2929262 76.65812603 -4.64501953 76.70483398 C-3.22807297 76.72881508 -3.22807297 76.72881508 -1.78250122 76.75328064 C-0.76372894 76.75864334 0.25504333 76.76400604 1.3046875 76.76953125 C2.35399445 76.77855972 3.40330139 76.7875882 4.48440552 76.79689026 C6.70523216 76.81140391 8.92610166 76.82028225 11.14697266 76.82397461 C14.54272624 76.83586824 17.93666144 76.88504254 21.33203125 76.93554688 C23.48957446 76.94501128 25.64712884 76.95224623 27.8046875 76.95703125 C28.81941132 76.97656357 29.83413513 76.99609589 30.87960815 77.01622009 C35.4952754 76.98671991 37.93719817 76.91824331 41.80517578 74.23852539 C44.15421206 71.11353912 44.15421206 71.11353912 44.6875 65.3984375 C34.7875 65.3984375 24.8875 65.3984375 14.6875 65.3984375 C14.6875 57.8084375 14.6875 50.2184375 14.6875 42.3984375 C21.78999757 42.37553443 28.89236803 42.35560553 35.99487305 42.34350586 C38.41317172 42.33846401 40.83146733 42.33163072 43.24975586 42.32299805 C46.71729283 42.31092593 50.18478966 42.30520787 53.65234375 42.30078125 C54.74087143 42.29561996 55.82939911 42.29045868 56.95091248 42.28514099 C58.45235558 42.28502769 58.45235558 42.28502769 59.98413086 42.28491211 C61.31316689 42.28158119 61.31316689 42.28158119 62.66905212 42.27818298 C64.6875 42.3984375 64.6875 42.3984375 65.6875 43.3984375 C65.97355602 47.66197246 65.91952228 51.93898258 65.9375 56.2109375 C65.958125 57.39365234 65.97875 58.57636719 66 59.79492188 C66.05446605 72.20637268 64.31767571 83.03519667 55.6875 92.3984375 C47.29388965 99.54635303 39.29282996 100.70889077 28.6015625 100.69921875 C27.54520599 100.70350388 26.48884949 100.707789 25.40048218 100.71220398 C23.17324538 100.71792855 20.9459899 100.71846141 18.71875 100.71411133 C15.33040112 100.71095418 11.94292847 100.73442516 8.5546875 100.75976562 C6.38281359 100.76203924 4.21093736 100.76274183 2.0390625 100.76171875 C0.53395615 100.77553337 0.53395615 100.77553337 -1.0015564 100.78962708 C-10.92282697 100.72510298 -18.93676699 98.41788411 -26.31640625 91.52734375 C-37.12817052 80.35717846 -36.9287779 68.22007248 -36.77905273 53.46459961 C-36.7500358 50.33979281 -36.75848344 47.21668152 -36.77148438 44.09179688 C-36.76524691 42.07811687 -36.75685591 40.06444215 -36.74609375 38.05078125 C-36.74902939 37.13070786 -36.75196503 36.21063446 -36.75498962 35.26268005 C-36.59376911 24.01788491 -33.4546778 15.75688917 -25.6484375 7.67578125 C-17.9943251 0.56339827 -10.05231224 -0.05475848 0 0 Z " transform="translate(132.3125,247.6015625)"/>
<path d="M0 0 C15.4996875 -0.12375 15.4996875 -0.12375 31.3125 -0.25 C34.55360596 -0.28641602 37.79471191 -0.32283203 41.1340332 -0.36035156 C43.73127583 -0.3720448 46.32852585 -0.38223512 48.92578125 -0.390625 C49.58539352 -0.40107849 50.2450058 -0.41153198 50.92460632 -0.42230225 C65.66001182 -0.64378844 76.84078135 3.162789 87.6875 13.25 C98.09213548 24.28084039 101.66456977 37.70288939 101.54077148 52.54199219 C100.99654615 67.20127929 94.39035733 79.43785856 83.8125 89.47265625 C72.15712025 99.29432324 60.11186041 100.15840512 45.41015625 100.09765625 C44.25737183 100.09664917 43.1045874 100.09564209 41.91687012 100.09460449 C37.63206988 100.08939304 33.34728389 100.07543183 29.0625 100.0625 C19.471875 100.041875 9.88125 100.02125 0 100 C0 67 0 34 0 0 Z M20 22 C20 39.82 20 57.64 20 76 C25.919375 76.20625 31.83875 76.4125 37.9375 76.625 C40.71208618 76.73062256 40.71208618 76.73062256 43.54272461 76.83837891 C45.03756958 76.88534235 46.53244153 76.93145805 48.02734375 76.9765625 C49.15662292 77.0242981 49.15662292 77.0242981 50.30871582 77.07299805 C59.32794468 77.32002059 66.84977223 75.84727319 73.59375 69.5 C79.11034816 63.65889607 81.10808513 57.46296024 81.375 49.5 C81.1106989 41.2721919 78.62658586 34.10341517 73 28 C66.1160383 22.580711 59.90758313 21.70336683 51.4453125 21.8046875 C50.24539673 21.80770874 50.24539673 21.80770874 49.02124023 21.81079102 C46.05576783 21.82119224 43.09037767 21.84911451 40.125 21.875 C33.48375 21.91625 26.8425 21.9575 20 22 Z "  transform="translate(209,248)"/>
</svg> 
